<?xml version="1.0" encoding="UTF-8" standalone="no"?>
<!DOCTYPE svg PUBLIC "-//W3C//DTD SVG 1.1//EN" "http://www.w3.org/Graphics/SVG/1.1/DTD/svg11.dtd">
<!--Generated by Intaglio, www.PurgatoryDesign.com-->
<svg version="1.1" viewBox="0,0,576,734" width="576" height="734" xmlns="http://www.w3.org/2000/svg" xmlns:xlink="http://www.w3.org/1999/xlink" xmlns:intaglio="http://purgatorydesign.com/namespaces/intaglio" intaglio:grid="36,36,1,1,0.5,#9999bf,1,0,0,0" intaglio:guides="0.8,#f0f,1,1"><path fill="none" stroke="#000100" stroke-width="2" d="M162,324 L69,429"/><path fill="none" stroke="#000100" stroke-width="2" d="M162,324 C162,324,195.069,359.1,218,376.5 C234.42,388.96,246.165,396.628,265,405 C293.621,417.722,314.011,424.452,345,429 C375.053,433.411,426,429,426,429"/><path fill="none" stroke="#000100" stroke-width="2" d="M69,429 C69,429,95.9995,461.831,115.5,478 C131.475,491.245,143.631,498.346,162,508 C187.892,521.608,206.127,529.131,234,538 C263.302,547.324,283.5,552.09,314,556 C347.123,560.246,369.631,557.712,403,559 C411.627,559.333,426,560,426,560"/><path stroke="#000" d="M182.75,434.75 C182.75,437.926,180.176,440.5,177,440.5 C173.824,440.5,171.25,437.926,171.25,434.75 C171.25,431.574,173.824,429,177,429 C180.176,429,182.75,431.574,182.75,434.75 Z"/><path fill="#fffffe" stroke="#ff0004" stroke-width="3" d="M138,420 C140.209,402.327,156.327,389.791,174,392 C183.453,393.182,191.9,398.482,197.075,406.481"/><path fill="#fffffe" stroke="#ff0004" stroke-width="3" d="M197.075,406.481 C197.075,406.481,207.122,419.772,207,429 C206.885,437.709,204.315,445.157,197.075,450 C190.81,454.191,177,451,177,451"/><path fill="none" stroke="#ff0004" stroke-width="3" d="M138,420 C138,420,136.435,432.974,138,440.5 C140.873,454.312,143.908,464.213,153,475 C161.597,485.199,170.391,489.482,182.75,494.5 C212.92,506.75,235.672,507.107,268,511 C306.393,515.623,332.343,517.017,371,516 C396.999,515.316,440,509,440,509"/><path stroke="#000" d="M141.375,424 C141.375,426.209,139.584,428,137.375,428 C135.166,428,133.375,426.209,133.375,424 C133.375,421.791,135.166,420,137.375,420 C139.584,420,141.375,421.791,141.375,424 Z"/><text fill="#000100" font-family="Palatino" font-style="italic" font-size="18" transform="matrix(1,0,0,1,65.5654,505.396)" xml:space="preserve"><tspan kerning="0">Q(L</tspan><tspan font-style="normal" kerning="0">)</tspan></text><g><path fill="none" intaglio:arrow-end="1" stroke="#00f" stroke-width="3" d="M176.896,434.75 L150.496,427.849" intaglio:d="M176.896,434.75 L136.709,424.245"/><path fill="#00f" intaglio:omit="yes" d="M149.704,433.844 L136.709,424.245 L152.739,422.234"/></g><path fill="none" stroke="#000100" stroke-width="2" d="M118.388,332.386 L252.112,351.462"/><path fill="none" stroke="#000100" stroke-width="2" d="M247.184,51.4238 C247.184,51.4238,254.29,85.8603,251.441,106.305 C249.075,123.279,244.587,134.585,235.581,149.17 C223.791,168.263,210.473,176.915,194.699,192.882 C174.635,213.192,155.7,221.899,139.731,245.56 C131.305,258.046,128.607,268.274,124.811,282.848 C120.09,300.976,118.388,332.386,118.388,332.386"/><path fill="none" stroke="#000100" stroke-width="2" d="M119.328,54.4593 C119.328,54.4593,115.852,97.7503,122.258,121.855 C125.874,135.46,131.191,143.506,139.253,153.988 C155.706,175.378,172.208,182.123,190.902,200.654 C206.957,216.567,220.336,224.71,232.085,245.365 C243.331,265.133,247.392,281.502,250.975,305.068 C253.578,322.181,250.906,351.462,250.906,351.462"/><path stroke="#000" d="M181.75,341.924 C181.75,344.133,179.959,345.924,177.75,345.924 C175.541,345.924,173.75,344.133,173.75,341.924 C173.75,339.715,175.541,337.924,177.75,337.924 C179.959,337.924,181.75,339.715,181.75,341.924 Z"/><text fill="#000100" font-family="Palatino" font-style="italic" font-size="18" transform="matrix(1,0,0,1,190.937,328.782)" xml:space="preserve"><tspan kerning="0">Q(-L</tspan><tspan font-style="normal" kerning="0">)</tspan></text><path fill="none" stroke="#ff0004" stroke-width="2" stroke-dasharray="2" d="M178.5,341.924 C178.5,341.924,178.241,347.837,178.108,351.568 C177.874,358.119,177.736,362.634,177.554,369.517 C177.405,375.145,177.299,378.916,177.212,384.813 C177.144,389.436,177.145,392.632,177.12,397.345 C177.046,411.346,177,434.75,177,434.75"/><g><path fill="none" intaglio:arrow-end="1" stroke="#00ff18" stroke-width="3" d="M178.5,341.924 L138.947,392.874" intaglio:d="M178.5,341.924 L130.209,404.13"/><path fill="#00ff18" intaglio:omit="yes" d="M144.147,395.961 L130.209,404.13 L134.668,388.602"/></g><text fill="#000100" font-family="Palatino" font-style="italic" font-size="18" transform="matrix(1,0,0,1,40.0264,345.561)" xml:space="preserve"><tspan>Ψ(-L)</tspan></text><text fill="#000100" font-family="Palatino" font-style="italic" font-size="18" transform="matrix(1,0,0,1,119.102,530.31)" xml:space="preserve"><tspan>W</tspan><tspan baseline-shift="super">s</tspan><tspan>(0)</tspan></text><text fill="#000100" font-family="Palatino" font-style="italic" font-size="18" transform="matrix(1,0,0,1,92.5351,243.784)" xml:space="preserve"><tspan>W</tspan><tspan baseline-shift="super">u</tspan><tspan>(0)</tspan></text><path fill="none" stroke="#ff0004" stroke-width="3" d="M178.5,341.924 L192,133.5"/><path fill="none" stroke="#ff0004" stroke-width="3" d="M192,133.5 C207,78.5,214.692,76.7867,239.72,51.5 C252.089,39.003,263.329,33.0886,280,27.5 C297.885,21.5045,311.169,23.0973,330,22 C357.329,20.4075,375.638,20.6222,403,21.5 C421.495,22.0933,434.216,20.7281,452.22,25 C470.712,29.3877,484.349,32.3939,499,44.5 C510.786,54.2387,514.641,64.8358,521.5,78.5 C533.659,102.724,540.92,119.876,546,146.5 C548.25,158.293,546.979,166.494,547,178.5 C547.15,266.121,547.399,324.716,540.5,412.065 C538.447,438.054,545.567,459.051,531.5,481 C526.363,489.015,518.629,490.478,510,494.5 C497.257,500.44,488.096,503.214,474.315,506 C461.654,508.56,440,509,440,509"/><path fill="none" stroke="#000100" d="M84.625,342.019 L149.375,370.813"/><path fill="none" stroke="#000100" d="M100.959,491.527 L156.802,436.875"/></svg>
