<?xml version="1.0" encoding="UTF-8" standalone="no"?>
<!DOCTYPE svg PUBLIC "-//W3C//DTD SVG 1.1//EN" "http://www.w3.org/Graphics/SVG/1.1/DTD/svg11.dtd">
<!--Generated by Intaglio, www.PurgatoryDesign.com-->
<svg version="1.1" viewBox="0,0,576,403.2" width="576" height="403.2" xmlns="http://www.w3.org/2000/svg" xmlns:xlink="http://www.w3.org/1999/xlink" xmlns:intaglio="http://purgatorydesign.com/namespaces/intaglio" intaglio:grid="36,36,1,1,0.5,#9999bf,1,0,0,0" intaglio:guides="0.8,#f0f,0,1"><image xlink:href="1.pdf" width="612" height="792" transform="matrix(1,0,0,1,-22.5,-203.5)"/><path stroke="#0d0d0d" d="M170.5,150 C170.5,154.142,167.254,157.5,163.25,157.5 C159.246,157.5,156,154.142,156,150 C156,145.858,159.246,142.5,163.25,142.5 C167.254,142.5,170.5,145.858,170.5,150 Z"/><text font-family="Palatino" font-size="26" transform="matrix(1,0,0,1,181.325,156.037)" xml:space="preserve"><tspan>p*</tspan></text><text font-family="Palatino" font-size="26" transform="matrix(1,0,0,1,348,250.5)" xml:space="preserve"><tspan>s</tspan><tspan baseline-shift="sub">1</tspan></text><text font-family="Palatino" font-size="26" transform="matrix(1,0,0,1,114.029,195.854)" xml:space="preserve"><tspan>s</tspan><tspan baseline-shift="sub">0</tspan></text><g><path fill="none" intaglio:arrow-end="1" stroke="#000" stroke-width="2" d="M380,246.943 L402.125,246.943" intaglio:d="M380,246.943 L414,246.943"/><path intaglio:omit="yes" d="M401.5,241.943 L414,246.943 L401.5,251.943"/></g><g><path fill="none" intaglio:arrow-end="1" stroke="#000" stroke-width="2" d="M129.882,213.5 L123.324,235.56" intaglio:d="M129.882,213.5 L119.939,246.943"/><path intaglio:omit="yes" d="M128.294,236.386 L119.939,246.943 L118.709,233.536"/></g></svg>
